<?xml version="1.0" encoding="UTF-8"?>
<svg xmlns="http://www.w3.org/2000/svg" version="1.1" width="100" height="100" viewBox="0 0 100 100"><rect x="0" y="0" width="100" height="100" fill="#ffffff"/><g transform="scale(3.448)"><g transform="translate(0,0)"><path fill-rule="evenodd" d="M8 0L8 1L10 1L10 0ZM13 0L13 1L14 1L14 2L11 2L11 4L10 4L10 3L9 3L9 2L8 2L8 5L9 5L9 6L8 6L8 7L9 7L9 8L8 8L8 9L9 9L9 10L8 10L8 12L9 12L9 13L8 13L8 15L9 15L9 17L10 17L10 15L9 15L9 14L12 14L12 16L11 16L11 17L12 17L12 18L10 18L10 19L9 19L9 18L6 18L6 17L8 17L8 16L6 16L6 17L5 17L5 18L4 18L4 19L3 19L3 18L2 18L2 17L4 17L4 16L3 16L3 15L2 15L2 14L0 14L0 15L1 15L1 16L2 16L2 17L1 17L1 18L0 18L0 19L1 19L1 18L2 18L2 19L3 19L3 20L5 20L5 18L6 18L6 19L7 19L7 20L6 20L6 21L8 21L8 22L9 22L9 24L10 24L10 26L11 26L11 27L10 27L10 28L9 28L9 25L8 25L8 29L11 29L11 28L12 28L12 29L13 29L13 28L12 28L12 26L13 26L13 27L14 27L14 29L16 29L16 28L17 28L17 27L18 27L18 26L19 26L19 28L20 28L20 29L21 29L21 27L22 27L22 25L23 25L23 28L24 28L24 29L25 29L25 28L26 28L26 25L28 25L28 27L27 27L27 29L28 29L28 27L29 27L29 23L28 23L28 22L29 22L29 21L27 21L27 18L28 18L28 15L29 15L29 13L27 13L27 12L26 12L26 11L28 11L28 12L29 12L29 11L28 11L28 10L29 10L29 8L28 8L28 10L26 10L26 11L24 11L24 10L25 10L25 9L27 9L27 8L24 8L24 9L22 9L22 8L21 8L21 6L20 6L20 5L21 5L21 4L20 4L20 3L21 3L21 2L20 2L20 3L19 3L19 5L18 5L18 3L17 3L17 2L18 2L18 1L17 1L17 0L16 0L16 3L15 3L15 4L14 4L14 2L15 2L15 1L14 1L14 0ZM19 0L19 1L21 1L21 0ZM12 3L12 5L10 5L10 6L9 6L9 7L10 7L10 8L9 8L9 9L10 9L10 10L9 10L9 12L10 12L10 13L11 13L11 11L13 11L13 10L14 10L14 13L13 13L13 12L12 12L12 14L13 14L13 16L12 16L12 17L13 17L13 16L15 16L15 17L16 17L16 18L18 18L18 19L19 19L19 21L20 21L20 19L21 19L21 16L22 16L22 19L23 19L23 16L24 16L24 15L25 15L25 17L24 17L24 20L26 20L26 19L25 19L25 18L26 18L26 17L27 17L27 15L25 15L25 14L27 14L27 13L25 13L25 12L22 12L22 10L21 10L21 9L20 9L20 10L19 10L19 9L17 9L17 10L19 10L19 11L16 11L16 9L15 9L15 7L16 7L16 8L17 8L17 7L18 7L18 5L15 5L15 7L14 7L14 5L13 5L13 3ZM16 3L16 4L17 4L17 3ZM12 5L12 7L11 7L11 6L10 6L10 7L11 7L11 8L12 8L12 7L13 7L13 5ZM16 6L16 7L17 7L17 6ZM19 6L19 8L20 8L20 6ZM0 8L0 9L4 9L4 10L6 10L6 11L3 11L3 12L2 12L2 10L1 10L1 11L0 11L0 13L3 13L3 14L4 14L4 15L5 15L5 14L6 14L6 15L7 15L7 14L6 14L6 13L7 13L7 12L6 12L6 11L7 11L7 10L6 10L6 9L7 9L7 8L6 8L6 9L4 9L4 8ZM14 9L14 10L15 10L15 9ZM20 10L20 11L19 11L19 12L20 12L20 13L18 13L18 12L17 12L17 13L16 13L16 12L15 12L15 14L14 14L14 15L15 15L15 16L17 16L17 14L18 14L18 15L20 15L20 14L21 14L21 15L22 15L22 16L23 16L23 15L24 15L24 14L23 14L23 13L22 13L22 14L21 14L21 12L20 12L20 11L21 11L21 10ZM3 12L3 13L4 13L4 14L5 14L5 13L6 13L6 12L5 12L5 13L4 13L4 12ZM15 14L15 15L16 15L16 14ZM22 14L22 15L23 15L23 14ZM18 16L18 17L19 17L19 16ZM11 19L11 20L10 20L10 21L9 21L9 20L8 20L8 21L9 21L9 22L10 22L10 24L11 24L11 25L12 25L12 24L13 24L13 26L14 26L14 27L15 27L15 28L16 28L16 27L17 27L17 26L14 26L14 24L15 24L15 23L16 23L16 19L15 19L15 20L14 20L14 19L13 19L13 20L14 20L14 23L11 23L11 22L12 22L12 21L11 21L11 20L12 20L12 19ZM1 20L1 21L2 21L2 20ZM17 21L17 22L18 22L18 23L17 23L17 24L18 24L18 25L19 25L19 26L21 26L21 25L20 25L20 24L18 24L18 23L19 23L19 22L18 22L18 21ZM21 21L21 24L24 24L24 21ZM22 22L22 23L23 23L23 22ZM26 22L26 23L25 23L25 25L26 25L26 24L27 24L27 22ZM24 26L24 28L25 28L25 26ZM0 0L0 7L7 7L7 0ZM1 1L1 6L6 6L6 1ZM2 2L2 5L5 5L5 2ZM22 0L22 7L29 7L29 0ZM23 1L23 6L28 6L28 1ZM24 2L24 5L27 5L27 2ZM0 22L0 29L7 29L7 22ZM1 23L1 28L6 28L6 23ZM2 24L2 27L5 27L5 24Z" fill="#000000"/></g></g></svg>
