<?xml version="1.0" encoding="UTF-8"?>
<svg xmlns="http://www.w3.org/2000/svg" version="1.1" width="400" height="400" viewBox="0 0 400 400"><rect x="0" y="0" width="400" height="400" fill="#ffffff"/><g transform="scale(12.121)"><g transform="translate(0,0)"><path fill-rule="evenodd" d="M9 0L9 1L11 1L11 2L9 2L9 3L8 3L8 5L9 5L9 6L8 6L8 7L9 7L9 9L10 9L10 10L9 10L9 11L8 11L8 8L5 8L5 10L2 10L2 8L0 8L0 9L1 9L1 10L0 10L0 11L1 11L1 10L2 10L2 12L1 12L1 13L0 13L0 15L1 15L1 16L0 16L0 20L1 20L1 21L0 21L0 25L3 25L3 23L4 23L4 25L8 25L8 28L9 28L9 31L8 31L8 33L10 33L10 32L9 32L9 31L10 31L10 28L11 28L11 29L12 29L12 30L11 30L11 31L12 31L12 33L13 33L13 32L14 32L14 33L19 33L19 32L14 32L14 31L12 31L12 30L15 30L15 31L16 31L16 29L19 29L19 30L17 30L17 31L20 31L20 30L22 30L22 33L23 33L23 32L24 32L24 33L25 33L25 32L24 32L24 31L25 31L25 29L27 29L27 31L28 31L28 33L29 33L29 30L31 30L31 31L30 31L30 32L31 32L31 33L32 33L32 32L31 32L31 31L33 31L33 29L32 29L32 28L31 28L31 27L32 27L32 26L33 26L33 25L32 25L32 24L31 24L31 23L32 23L32 20L31 20L31 19L30 19L30 20L29 20L29 19L28 19L28 18L27 18L27 17L25 17L25 16L24 16L24 17L23 17L23 16L22 16L22 17L23 17L23 19L22 19L22 18L21 18L21 19L22 19L22 22L21 22L21 20L20 20L20 21L19 21L19 20L17 20L17 19L20 19L20 17L21 17L21 14L20 14L20 12L18 12L18 13L19 13L19 14L18 14L18 15L19 15L19 14L20 14L20 17L19 17L19 16L17 16L17 14L15 14L15 12L17 12L17 11L14 11L14 12L13 12L13 13L12 13L12 14L13 14L13 15L12 15L12 17L13 17L13 16L14 16L14 17L16 17L16 19L15 19L15 18L12 18L12 19L11 19L11 18L10 18L10 19L9 19L9 18L8 18L8 15L10 15L10 14L11 14L11 12L12 12L12 11L13 11L13 10L11 10L11 8L10 8L10 7L11 7L11 4L12 4L12 5L13 5L13 6L12 6L12 9L13 9L13 8L14 8L14 10L15 10L15 9L16 9L16 8L14 8L14 7L15 7L15 5L16 5L16 7L17 7L17 5L16 5L16 3L17 3L17 4L19 4L19 5L18 5L18 7L19 7L19 5L20 5L20 7L21 7L21 6L22 6L22 8L23 8L23 6L22 6L22 5L24 5L24 4L25 4L25 3L24 3L24 2L21 2L21 1L23 1L23 0L20 0L20 2L21 2L21 5L20 5L20 4L19 4L19 3L17 3L17 2L16 2L16 0L13 0L13 1L12 1L12 0ZM17 0L17 1L18 1L18 2L19 2L19 1L18 1L18 0ZM13 1L13 2L12 2L12 4L14 4L14 2L15 2L15 3L16 3L16 2L15 2L15 1ZM9 3L9 5L10 5L10 3ZM22 3L22 4L24 4L24 3ZM9 6L9 7L10 7L10 6ZM13 6L13 7L14 7L14 6ZM24 6L24 7L25 7L25 6ZM17 8L17 9L19 9L19 10L18 10L18 11L19 11L19 10L20 10L20 11L21 11L21 10L22 10L22 12L23 12L23 13L22 13L22 14L24 14L24 12L23 12L23 10L24 10L24 11L25 11L25 14L26 14L26 15L28 15L28 17L29 17L29 18L30 18L30 17L29 17L29 15L30 15L30 16L31 16L31 18L32 18L32 19L33 19L33 17L32 17L32 16L33 16L33 15L32 15L32 14L33 14L33 12L31 12L31 11L30 11L30 12L29 12L29 9L30 9L30 8L28 8L28 10L27 10L27 12L26 12L26 11L25 11L25 10L26 10L26 9L25 9L25 10L24 10L24 9L21 9L21 8L20 8L20 9L19 9L19 8ZM6 9L6 10L7 10L7 9ZM31 9L31 10L32 10L32 9ZM10 10L10 11L9 11L9 12L8 12L8 14L10 14L10 13L9 13L9 12L10 12L10 11L11 11L11 10ZM4 11L4 12L5 12L5 15L4 15L4 14L3 14L3 15L4 15L4 16L3 16L3 17L2 17L2 19L5 19L5 20L3 20L3 22L1 22L1 24L2 24L2 23L3 23L3 22L5 22L5 23L6 23L6 24L7 24L7 23L6 23L6 22L8 22L8 24L9 24L9 23L10 23L10 24L12 24L12 23L13 23L13 22L12 22L12 21L14 21L14 22L16 22L16 21L17 21L17 23L14 23L14 25L9 25L9 28L10 28L10 26L13 26L13 27L12 27L12 29L15 29L15 28L16 28L16 27L15 27L15 24L16 24L16 26L17 26L17 28L20 28L20 29L22 29L22 30L24 30L24 27L21 27L21 26L24 26L24 24L29 24L29 28L30 28L30 29L31 29L31 28L30 28L30 27L31 27L31 26L32 26L32 25L31 25L31 24L30 24L30 23L29 23L29 22L30 22L30 21L31 21L31 20L30 20L30 21L29 21L29 22L28 22L28 21L27 21L27 18L26 18L26 19L25 19L25 20L24 20L24 19L23 19L23 21L24 21L24 22L23 22L23 23L21 23L21 25L20 25L20 24L19 24L19 23L20 23L20 22L19 22L19 21L17 21L17 20L14 20L14 19L12 19L12 21L10 21L10 20L11 20L11 19L10 19L10 20L9 20L9 19L8 19L8 18L7 18L7 17L5 17L5 18L3 18L3 17L4 17L4 16L5 16L5 15L6 15L6 16L7 16L7 15L6 15L6 14L7 14L7 13L6 13L6 12L7 12L7 11ZM28 12L28 13L27 13L27 14L28 14L28 15L29 15L29 12ZM30 12L30 15L31 15L31 16L32 16L32 15L31 15L31 12ZM1 14L1 15L2 15L2 14ZM15 15L15 16L16 16L16 17L17 17L17 18L19 18L19 17L17 17L17 16L16 16L16 15ZM9 16L9 17L10 17L10 16ZM24 17L24 18L25 18L25 17ZM6 18L6 19L7 19L7 18ZM6 20L6 21L5 21L5 22L6 22L6 21L8 21L8 22L9 22L9 21L8 21L8 20ZM25 21L25 22L26 22L26 21ZM10 22L10 23L11 23L11 22ZM18 22L18 23L19 23L19 22ZM27 22L27 23L28 23L28 22ZM23 23L23 24L24 24L24 23ZM18 24L18 25L19 25L19 26L18 26L18 27L19 27L19 26L20 26L20 25L19 25L19 24ZM25 25L25 28L28 28L28 25ZM30 25L30 26L31 26L31 25ZM26 26L26 27L27 27L27 26ZM20 27L20 28L21 28L21 27ZM22 28L22 29L23 29L23 28ZM0 0L0 7L7 7L7 0ZM1 1L1 6L6 6L6 1ZM2 2L2 5L5 5L5 2ZM26 0L26 7L33 7L33 0ZM27 1L27 6L32 6L32 1ZM28 2L28 5L31 5L31 2ZM0 26L0 33L7 33L7 26ZM1 27L1 32L6 32L6 27ZM2 28L2 31L5 31L5 28Z" fill="#000000"/></g></g></svg>
