<?xml version="1.0" encoding="UTF-8"?>
<svg xmlns="http://www.w3.org/2000/svg" version="1.1" width="400" height="400" viewBox="0 0 400 400"><rect x="0" y="0" width="400" height="400" fill="#ffffff"/><g transform="scale(13.793)"><g transform="translate(0,0)"><path fill-rule="evenodd" d="M8 0L8 1L10 1L10 0ZM12 0L12 1L13 1L13 2L12 2L12 3L13 3L13 4L12 4L12 5L11 5L11 3L10 3L10 2L9 2L9 5L10 5L10 9L11 9L11 12L9 12L9 11L10 11L10 10L9 10L9 9L7 9L7 8L6 8L6 9L7 9L7 10L6 10L6 11L5 11L5 8L3 8L3 9L2 9L2 8L0 8L0 10L1 10L1 11L0 11L0 15L1 15L1 16L0 16L0 21L2 21L2 20L3 20L3 21L7 21L7 20L9 20L9 21L8 21L8 22L11 22L11 24L10 24L10 23L9 23L9 24L8 24L8 26L9 26L9 27L8 27L8 29L9 29L9 27L11 27L11 26L13 26L13 27L12 27L12 28L10 28L10 29L12 29L12 28L13 28L13 29L15 29L15 28L16 28L16 26L17 26L17 27L19 27L19 28L18 28L18 29L19 29L19 28L20 28L20 29L21 29L21 28L20 28L20 27L21 27L21 26L20 26L20 25L23 25L23 26L24 26L24 27L25 27L25 26L27 26L27 27L26 27L26 28L23 28L23 27L22 27L22 28L23 28L23 29L26 29L26 28L27 28L27 27L28 27L28 28L29 28L29 23L27 23L27 24L28 24L28 25L25 25L25 23L26 23L26 21L28 21L28 20L27 20L27 19L22 19L22 20L21 20L21 18L20 18L20 17L17 17L17 18L19 18L19 20L20 20L20 21L18 21L18 20L17 20L17 19L16 19L16 16L13 16L13 15L14 15L14 13L15 13L15 15L17 15L17 12L19 12L19 13L20 13L20 14L19 14L19 15L20 15L20 16L21 16L21 17L22 17L22 16L23 16L23 18L28 18L28 19L29 19L29 18L28 18L28 17L24 17L24 15L23 15L23 12L25 12L25 9L24 9L24 10L22 10L22 11L23 11L23 12L21 12L21 13L20 13L20 12L19 12L19 11L18 11L18 10L16 10L16 9L18 9L18 8L16 8L16 7L17 7L17 6L18 6L18 7L19 7L19 10L20 10L20 11L21 11L21 6L20 6L20 7L19 7L19 6L18 6L18 5L21 5L21 2L20 2L20 1L18 1L18 0L17 0L17 1L16 1L16 2L15 2L15 0L14 0L14 1L13 1L13 0ZM17 1L17 3L18 3L18 4L19 4L19 3L20 3L20 2L19 2L19 3L18 3L18 1ZM14 2L14 3L15 3L15 7L14 7L14 6L13 6L13 5L12 5L12 6L11 6L11 9L13 9L13 10L12 10L12 11L13 11L13 12L12 12L12 13L14 13L14 10L15 10L15 9L16 9L16 8L15 8L15 7L16 7L16 6L17 6L17 5L16 5L16 3L15 3L15 2ZM8 6L8 8L9 8L9 6ZM12 6L12 8L14 8L14 7L13 7L13 6ZM22 8L22 9L23 9L23 8ZM28 8L28 9L26 9L26 11L27 11L27 10L28 10L28 9L29 9L29 8ZM1 9L1 10L2 10L2 9ZM3 10L3 11L4 11L4 12L2 12L2 11L1 11L1 12L2 12L2 13L3 13L3 14L2 14L2 15L3 15L3 16L2 16L2 17L1 17L1 18L2 18L2 19L4 19L4 20L5 20L5 19L4 19L4 17L5 17L5 18L7 18L7 17L6 17L6 16L8 16L8 17L9 17L9 19L11 19L11 20L10 20L10 21L13 21L13 22L12 22L12 23L13 23L13 24L12 24L12 25L14 25L14 27L13 27L13 28L15 28L15 25L14 25L14 22L15 22L15 20L16 20L16 19L14 19L14 20L12 20L12 19L13 19L13 18L14 18L14 17L13 17L13 16L12 16L12 15L13 15L13 14L11 14L11 13L8 13L8 10L7 10L7 11L6 11L6 12L7 12L7 13L5 13L5 11L4 11L4 10ZM15 11L15 12L17 12L17 11ZM28 11L28 13L27 13L27 14L26 14L26 13L24 13L24 14L25 14L25 15L26 15L26 16L27 16L27 14L28 14L28 16L29 16L29 11ZM3 14L3 15L4 15L4 16L6 16L6 15L7 15L7 14L5 14L5 15L4 15L4 14ZM8 14L8 15L11 15L11 14ZM20 14L20 15L21 15L21 16L22 16L22 15L21 15L21 14ZM9 16L9 17L10 17L10 16ZM11 16L11 17L12 17L12 18L11 18L11 19L12 19L12 18L13 18L13 17L12 17L12 16ZM6 19L6 20L7 20L7 19ZM16 21L16 22L18 22L18 21ZM21 21L21 24L24 24L24 21ZM22 22L22 23L23 23L23 22ZM18 23L18 24L16 24L16 25L17 25L17 26L19 26L19 24L20 24L20 23ZM9 24L9 26L10 26L10 24ZM24 25L24 26L25 26L25 25ZM0 0L0 7L7 7L7 0ZM1 1L1 6L6 6L6 1ZM2 2L2 5L5 5L5 2ZM22 0L22 7L29 7L29 0ZM23 1L23 6L28 6L28 1ZM24 2L24 5L27 5L27 2ZM0 22L0 29L7 29L7 22ZM1 23L1 28L6 28L6 23ZM2 24L2 27L5 27L5 24Z" fill="#000000"/></g></g></svg>
