<?xml version="1.0" encoding="UTF-8"?>
<svg xmlns="http://www.w3.org/2000/svg" version="1.1" width="400" height="400" viewBox="0 0 400 400"><rect x="0" y="0" width="400" height="400" fill="#ffffff"/><g transform="scale(13.793)"><g transform="translate(0,0)"><path fill-rule="evenodd" d="M8 0L8 2L9 2L9 4L8 4L8 9L7 9L7 8L5 8L5 9L4 9L4 11L3 11L3 8L0 8L0 9L2 9L2 10L0 10L0 11L1 11L1 12L0 12L0 13L1 13L1 12L2 12L2 13L3 13L3 14L2 14L2 15L1 15L1 16L0 16L0 17L3 17L3 19L2 19L2 18L0 18L0 19L2 19L2 20L0 20L0 21L2 21L2 20L3 20L3 21L8 21L8 22L9 22L9 23L8 23L8 24L9 24L9 25L10 25L10 26L8 26L8 29L9 29L9 28L10 28L10 27L12 27L12 28L11 28L11 29L12 29L12 28L13 28L13 27L14 27L14 26L15 26L15 28L14 28L14 29L15 29L15 28L16 28L16 29L17 29L17 27L16 27L16 26L17 26L17 25L16 25L16 22L17 22L17 23L18 23L18 24L19 24L19 25L18 25L18 29L21 29L21 27L20 27L20 26L21 26L21 25L23 25L23 27L24 27L24 28L22 28L22 29L25 29L25 22L27 22L27 21L28 21L28 23L27 23L27 24L28 24L28 25L27 25L27 26L26 26L26 27L29 27L29 24L28 24L28 23L29 23L29 21L28 21L28 20L27 20L27 21L26 21L26 20L24 20L24 19L22 19L22 20L20 20L20 21L19 21L19 22L17 22L17 19L16 19L16 18L17 18L17 15L18 15L18 16L19 16L19 19L18 19L18 20L19 20L19 19L21 19L21 18L20 18L20 16L19 16L19 15L23 15L23 16L21 16L21 17L22 17L22 18L23 18L23 17L24 17L24 16L25 16L25 18L28 18L28 19L29 19L29 16L28 16L28 17L26 17L26 16L25 16L25 15L26 15L26 14L28 14L28 15L29 15L29 12L28 12L28 13L26 13L26 14L25 14L25 15L24 15L24 14L23 14L23 11L27 11L27 10L28 10L28 11L29 11L29 8L27 8L27 10L23 10L23 9L25 9L25 8L21 8L21 9L22 9L22 10L23 10L23 11L22 11L22 12L21 12L21 14L20 14L20 12L19 12L19 13L18 13L18 14L17 14L17 11L18 11L18 10L19 10L19 11L21 11L21 10L20 10L20 8L19 8L19 4L20 4L20 5L21 5L21 4L20 4L20 3L19 3L19 2L17 2L17 1L18 1L18 0L17 0L17 1L16 1L16 2L13 2L13 3L12 3L12 2L11 2L11 1L10 1L10 0ZM12 0L12 1L13 1L13 0ZM14 0L14 1L15 1L15 0ZM9 1L9 2L10 2L10 1ZM20 1L20 2L21 2L21 1ZM10 3L10 5L9 5L9 10L7 10L7 9L5 9L5 12L3 12L3 11L2 11L2 12L3 12L3 13L4 13L4 14L3 14L3 15L2 15L2 16L4 16L4 17L5 17L5 16L7 16L7 15L5 15L5 16L4 16L4 14L5 14L5 13L6 13L6 14L8 14L8 13L9 13L9 15L8 15L8 16L9 16L9 15L10 15L10 17L11 17L11 16L12 16L12 18L14 18L14 19L13 19L13 20L12 20L12 19L11 19L11 20L12 20L12 22L14 22L14 23L13 23L13 24L12 24L12 23L11 23L11 24L12 24L12 26L14 26L14 24L15 24L15 22L14 22L14 20L16 20L16 19L15 19L15 18L14 18L14 16L16 16L16 15L15 15L15 14L14 14L14 12L16 12L16 11L17 11L17 10L18 10L18 9L19 9L19 8L18 8L18 5L17 5L17 3L14 3L14 4L13 4L13 5L12 5L12 3ZM14 4L14 5L13 5L13 6L12 6L12 8L10 8L10 10L9 10L9 11L7 11L7 10L6 10L6 11L7 11L7 12L6 12L6 13L8 13L8 12L9 12L9 13L11 13L11 14L10 14L10 15L12 15L12 16L13 16L13 15L14 15L14 14L12 14L12 12L13 12L13 11L14 11L14 10L15 10L15 11L16 11L16 10L17 10L17 8L16 8L16 7L17 7L17 5L16 5L16 7L15 7L15 4ZM10 5L10 7L11 7L11 5ZM13 6L13 8L12 8L12 10L14 10L14 6ZM20 6L20 7L21 7L21 6ZM15 8L15 9L16 9L16 8ZM10 10L10 11L9 11L9 12L12 12L12 11L11 11L11 10ZM18 14L18 15L19 15L19 14ZM6 17L6 18L7 18L7 19L5 19L5 18L4 18L4 20L9 20L9 22L11 22L11 21L10 21L10 20L9 20L9 19L8 19L8 18L9 18L9 17ZM21 21L21 24L24 24L24 21ZM19 22L19 24L20 24L20 22ZM22 22L22 23L23 23L23 22ZM9 23L9 24L10 24L10 23ZM19 25L19 26L20 26L20 25ZM28 28L28 29L29 29L29 28ZM0 0L0 7L7 7L7 0ZM1 1L1 6L6 6L6 1ZM2 2L2 5L5 5L5 2ZM22 0L22 7L29 7L29 0ZM23 1L23 6L28 6L28 1ZM24 2L24 5L27 5L27 2ZM0 22L0 29L7 29L7 22ZM1 23L1 28L6 28L6 23ZM2 24L2 27L5 27L5 24Z" fill="#000000"/></g></g></svg>
