<?xml version="1.0" encoding="UTF-8"?>
<svg xmlns="http://www.w3.org/2000/svg" version="1.1" width="400" height="400" viewBox="0 0 400 400"><rect x="0" y="0" width="400" height="400" fill="#ffffff"/><g transform="scale(13.793)"><g transform="translate(0,0)"><path fill-rule="evenodd" d="M8 0L8 1L10 1L10 0ZM13 0L13 1L14 1L14 2L11 2L11 4L10 4L10 3L9 3L9 2L8 2L8 5L9 5L9 6L8 6L8 7L9 7L9 8L8 8L8 9L7 9L7 8L6 8L6 9L7 9L7 10L4 10L4 8L0 8L0 9L3 9L3 11L1 11L1 10L0 10L0 12L1 12L1 13L2 13L2 14L1 14L1 16L0 16L0 17L1 17L1 18L0 18L0 19L1 19L1 18L2 18L2 20L1 20L1 21L2 21L2 20L3 20L3 21L5 21L5 20L6 20L6 21L7 21L7 20L8 20L8 16L9 16L9 15L10 15L10 14L12 14L12 16L10 16L10 17L12 17L12 18L9 18L9 19L10 19L10 20L9 20L9 21L8 21L8 22L9 22L9 21L10 21L10 22L11 22L11 23L9 23L9 25L8 25L8 29L9 29L9 25L10 25L10 24L11 24L11 23L14 23L14 20L15 20L15 19L16 19L16 23L15 23L15 24L14 24L14 26L13 26L13 24L12 24L12 25L11 25L11 26L10 26L10 29L11 29L11 28L12 28L12 29L13 29L13 28L12 28L12 26L13 26L13 27L14 27L14 29L16 29L16 28L17 28L17 27L18 27L18 26L19 26L19 28L20 28L20 29L22 29L22 26L19 26L19 25L18 25L18 24L20 24L20 25L24 25L24 26L25 26L25 25L26 25L26 26L27 26L27 25L28 25L28 27L27 27L27 29L28 29L28 27L29 27L29 23L28 23L28 22L29 22L29 21L27 21L27 18L28 18L28 15L29 15L29 13L27 13L27 12L26 12L26 11L28 11L28 12L29 12L29 11L28 11L28 10L29 10L29 8L28 8L28 10L26 10L26 11L25 11L25 13L27 13L27 14L24 14L24 12L23 12L23 13L22 13L22 12L20 12L20 11L24 11L24 10L25 10L25 9L27 9L27 8L24 8L24 10L23 10L23 9L22 9L22 8L21 8L21 6L20 6L20 5L21 5L21 4L20 4L20 3L21 3L21 2L20 2L20 3L19 3L19 5L18 5L18 3L17 3L17 2L18 2L18 1L17 1L17 0L16 0L16 3L15 3L15 4L14 4L14 2L15 2L15 1L14 1L14 0ZM19 0L19 1L21 1L21 0ZM12 3L12 5L10 5L10 6L9 6L9 7L10 7L10 8L9 8L9 9L8 9L8 10L7 10L7 11L6 11L6 12L5 12L5 11L3 11L3 12L2 12L2 13L4 13L4 15L6 15L6 16L4 16L4 17L3 17L3 16L1 16L1 17L2 17L2 18L3 18L3 19L6 19L6 20L7 20L7 19L6 19L6 18L7 18L7 17L6 17L6 16L8 16L8 14L7 14L7 13L9 13L9 12L10 12L10 13L11 13L11 11L14 11L14 13L13 13L13 12L12 12L12 14L15 14L15 15L13 15L13 16L12 16L12 17L13 17L13 16L15 16L15 17L16 17L16 18L18 18L18 19L19 19L19 21L20 21L20 19L21 19L21 20L22 20L22 18L24 18L24 19L23 19L23 20L26 20L26 19L25 19L25 18L26 18L26 17L27 17L27 15L24 15L24 14L23 14L23 15L22 15L22 14L20 14L20 15L18 15L18 14L17 14L17 16L15 16L15 15L16 15L16 14L15 14L15 12L16 12L16 13L17 13L17 12L18 12L18 13L20 13L20 12L19 12L19 11L20 11L20 10L21 10L21 9L20 9L20 10L19 10L19 9L17 9L17 10L19 10L19 11L16 11L16 9L15 9L15 7L16 7L16 8L17 8L17 7L18 7L18 5L15 5L15 7L14 7L14 5L13 5L13 3ZM16 3L16 4L17 4L17 3ZM12 5L12 7L11 7L11 6L10 6L10 7L11 7L11 8L12 8L12 7L13 7L13 5ZM16 6L16 7L17 7L17 6ZM19 6L19 8L20 8L20 6ZM9 9L9 10L8 10L8 12L9 12L9 10L10 10L10 9ZM14 9L14 10L15 10L15 9ZM4 12L4 13L5 13L5 12ZM6 12L6 13L7 13L7 12ZM2 14L2 15L3 15L3 14ZM6 14L6 15L7 15L7 14ZM21 15L21 16L22 16L22 15ZM23 15L23 17L25 17L25 16L24 16L24 15ZM18 16L18 17L19 17L19 16ZM13 18L13 20L14 20L14 18ZM11 19L11 20L10 20L10 21L11 21L11 22L12 22L12 21L11 21L11 20L12 20L12 19ZM17 21L17 22L18 22L18 23L17 23L17 24L18 24L18 23L19 23L19 22L18 22L18 21ZM21 21L21 24L24 24L24 21ZM22 22L22 23L23 23L23 22ZM26 22L26 24L27 24L27 22ZM14 26L14 27L15 27L15 28L16 28L16 27L17 27L17 26ZM23 28L23 29L24 29L24 28ZM25 28L25 29L26 29L26 28ZM0 0L0 7L7 7L7 0ZM1 1L1 6L6 6L6 1ZM2 2L2 5L5 5L5 2ZM22 0L22 7L29 7L29 0ZM23 1L23 6L28 6L28 1ZM24 2L24 5L27 5L27 2ZM0 22L0 29L7 29L7 22ZM1 23L1 28L6 28L6 23ZM2 24L2 27L5 27L5 24Z" fill="#000000"/></g></g></svg>
