<?xml version="1.0" encoding="UTF-8"?>
<svg xmlns="http://www.w3.org/2000/svg" version="1.1" width="500" height="500" viewBox="0 0 500 500"><rect x="0" y="0" width="500" height="500" fill="#ffffff"/><g transform="scale(17.241)"><g transform="translate(0,0)"><path fill-rule="evenodd" d="M8 0L8 4L9 4L9 5L8 5L8 7L9 7L9 6L10 6L10 9L11 9L11 8L12 8L12 9L13 9L13 10L14 10L14 9L15 9L15 11L14 11L14 13L12 13L12 12L13 12L13 11L12 11L12 12L11 12L11 13L8 13L8 16L6 16L6 15L7 15L7 14L6 14L6 15L5 15L5 14L4 14L4 13L3 13L3 12L2 12L2 11L3 11L3 10L4 10L4 11L5 11L5 12L6 12L6 13L7 13L7 12L6 12L6 11L9 11L9 12L10 12L10 11L11 11L11 10L9 10L9 9L8 9L8 10L5 10L5 9L7 9L7 8L4 8L4 9L2 9L2 8L0 8L0 9L1 9L1 10L2 10L2 11L1 11L1 13L0 13L0 14L1 14L1 13L2 13L2 14L4 14L4 15L5 15L5 16L6 16L6 17L7 17L7 18L6 18L6 19L4 19L4 20L3 20L3 21L4 21L4 20L6 20L6 21L7 21L7 20L8 20L8 22L9 22L9 19L10 19L10 23L11 23L11 24L12 24L12 25L13 25L13 26L15 26L15 27L14 27L14 28L13 28L13 27L12 27L12 28L9 28L9 27L10 27L10 26L11 26L11 25L10 25L10 24L9 24L9 23L8 23L8 25L10 25L10 26L9 26L9 27L8 27L8 29L12 29L12 28L13 28L13 29L16 29L16 28L15 28L15 27L16 27L16 26L17 26L17 25L18 25L18 24L19 24L19 26L20 26L20 27L17 27L17 29L21 29L21 26L22 26L22 25L26 25L26 23L27 23L27 22L25 22L25 21L26 21L26 20L24 20L24 19L27 19L27 20L28 20L28 26L27 26L27 29L28 29L28 28L29 28L29 17L28 17L28 16L29 16L29 13L28 13L28 12L29 12L29 8L25 8L25 9L24 9L24 8L23 8L23 9L22 9L22 10L21 10L21 9L20 9L20 8L19 8L19 6L20 6L20 7L21 7L21 4L20 4L20 3L21 3L21 2L20 2L20 1L18 1L18 2L17 2L17 0L14 0L14 1L11 1L11 2L12 2L12 5L13 5L13 4L14 4L14 5L16 5L16 8L15 8L15 6L14 6L14 9L13 9L13 8L12 8L12 7L13 7L13 6L12 6L12 7L11 7L11 3L10 3L10 2L9 2L9 0ZM15 1L15 2L13 2L13 3L14 3L14 4L15 4L15 2L16 2L16 1ZM18 2L18 3L17 3L17 7L18 7L18 6L19 6L19 5L20 5L20 4L19 4L19 5L18 5L18 3L19 3L19 2ZM16 8L16 9L17 9L17 10L16 10L16 12L15 12L15 13L14 13L14 14L13 14L13 15L12 15L12 16L11 16L11 18L10 18L10 17L9 17L9 18L8 18L8 19L9 19L9 18L10 18L10 19L11 19L11 20L12 20L12 21L11 21L11 22L12 22L12 21L13 21L13 22L14 22L14 21L13 21L13 20L14 20L14 19L15 19L15 17L17 17L17 18L16 18L16 20L15 20L15 21L17 21L17 22L16 22L16 23L14 23L14 25L16 25L16 23L17 23L17 22L18 22L18 23L19 23L19 24L20 24L20 23L19 23L19 22L20 22L20 20L23 20L23 19L24 19L24 18L23 18L23 19L21 19L21 18L20 18L20 17L21 17L21 16L22 16L22 17L25 17L25 18L27 18L27 19L28 19L28 18L27 18L27 15L28 15L28 14L27 14L27 11L28 11L28 10L24 10L24 11L23 11L23 10L22 10L22 11L23 11L23 12L22 12L22 13L21 13L21 10L20 10L20 9L19 9L19 8L18 8L18 9L17 9L17 8ZM17 10L17 13L15 13L15 15L14 15L14 17L13 17L13 16L12 16L12 17L13 17L13 18L14 18L14 17L15 17L15 16L16 16L16 15L17 15L17 17L18 17L18 19L17 19L17 21L18 21L18 22L19 22L19 21L18 21L18 20L19 20L19 17L20 17L20 16L19 16L19 14L17 14L17 13L18 13L18 11L19 11L19 10ZM24 11L24 12L25 12L25 11ZM19 12L19 13L20 13L20 14L21 14L21 13L20 13L20 12ZM11 13L11 14L10 14L10 15L11 15L11 14L12 14L12 13ZM22 13L22 14L26 14L26 15L27 15L27 14L26 14L26 13ZM0 15L0 18L2 18L2 19L3 19L3 18L4 18L4 16L3 16L3 17L1 17L1 15ZM23 15L23 16L24 16L24 15ZM18 16L18 17L19 17L19 16ZM25 16L25 17L26 17L26 16ZM6 19L6 20L7 20L7 19ZM12 19L12 20L13 20L13 19ZM0 20L0 21L2 21L2 20ZM21 21L21 24L24 24L24 21ZM22 22L22 23L23 23L23 22ZM12 23L12 24L13 24L13 23ZM20 25L20 26L21 26L21 25ZM22 27L22 28L23 28L23 29L24 29L24 28L25 28L25 29L26 29L26 27L24 27L24 28L23 28L23 27ZM0 0L0 7L7 7L7 0ZM1 1L1 6L6 6L6 1ZM2 2L2 5L5 5L5 2ZM22 0L22 7L29 7L29 0ZM23 1L23 6L28 6L28 1ZM24 2L24 5L27 5L27 2ZM0 22L0 29L7 29L7 22ZM1 23L1 28L6 28L6 23ZM2 24L2 27L5 27L5 24Z" fill="#000000"/></g></g></svg>
