<?xml version="1.0" encoding="UTF-8"?>
<svg xmlns="http://www.w3.org/2000/svg" version="1.1" width="400" height="400" viewBox="0 0 400 400"><rect x="0" y="0" width="400" height="400" fill="#ffffff"/><g transform="scale(12.121)"><g transform="translate(0,0)"><path fill-rule="evenodd" d="M9 0L9 1L8 1L8 2L9 2L9 3L8 3L8 4L10 4L10 7L11 7L11 4L12 4L12 5L13 5L13 6L12 6L12 9L13 9L13 8L14 8L14 9L15 9L15 10L18 10L18 12L17 12L17 11L16 11L16 13L12 13L12 11L13 11L13 10L11 10L11 11L10 11L10 9L11 9L11 8L6 8L6 9L5 9L5 8L0 8L0 9L3 9L3 10L4 10L4 11L2 11L2 10L1 10L1 11L0 11L0 12L1 12L1 14L0 14L0 15L1 15L1 16L0 16L0 19L1 19L1 20L0 20L0 25L1 25L1 22L2 22L2 23L4 23L4 24L5 24L5 25L8 25L8 27L9 27L9 28L8 28L8 33L9 33L9 31L10 31L10 32L11 32L11 31L10 31L10 29L12 29L12 30L13 30L13 31L12 31L12 33L13 33L13 32L14 32L14 33L15 33L15 32L16 32L16 33L19 33L19 30L20 30L20 31L21 31L21 32L22 32L22 33L23 33L23 32L24 32L24 33L25 33L25 32L24 32L24 31L27 31L27 32L28 32L28 33L29 33L29 31L30 31L30 32L31 32L31 33L32 33L32 32L31 32L31 31L30 31L30 30L33 30L33 29L32 29L32 28L33 28L33 27L32 27L32 26L33 26L33 24L32 24L32 26L31 26L31 25L30 25L30 24L31 24L31 23L32 23L32 22L33 22L33 21L32 21L32 20L31 20L31 19L32 19L32 18L33 18L33 17L32 17L32 16L31 16L31 15L32 15L32 14L33 14L33 13L31 13L31 15L30 15L30 13L29 13L29 10L28 10L28 8L27 8L27 9L26 9L26 8L25 8L25 10L24 10L24 9L23 9L23 10L22 10L22 11L21 11L21 12L19 12L19 10L20 10L20 9L21 9L21 8L23 8L23 6L22 6L22 7L21 7L21 6L20 6L20 7L21 7L21 8L19 8L19 5L20 5L20 4L21 4L21 5L24 5L24 4L25 4L25 3L24 3L24 2L22 2L22 0L21 0L21 3L19 3L19 1L20 1L20 0L19 0L19 1L18 1L18 0L15 0L15 1L18 1L18 3L17 3L17 2L16 2L16 4L12 4L12 2L13 2L13 1L11 1L11 2L10 2L10 0ZM23 0L23 1L24 1L24 0ZM14 2L14 3L15 3L15 2ZM10 3L10 4L11 4L11 3ZM21 3L21 4L22 4L22 3ZM23 3L23 4L24 4L24 3ZM16 4L16 5L17 5L17 7L16 7L16 6L15 6L15 7L14 7L14 6L13 6L13 7L14 7L14 8L15 8L15 7L16 7L16 9L17 9L17 8L18 8L18 5L19 5L19 4L18 4L18 5L17 5L17 4ZM8 5L8 7L9 7L9 5ZM24 6L24 7L25 7L25 6ZM29 8L29 9L30 9L30 8ZM31 8L31 10L33 10L33 9L32 9L32 8ZM4 9L4 10L5 10L5 11L6 11L6 12L4 12L4 13L2 13L2 14L1 14L1 15L2 15L2 16L3 16L3 17L4 17L4 18L3 18L3 19L4 19L4 18L7 18L7 19L5 19L5 24L8 24L8 22L9 22L9 27L10 27L10 25L11 25L11 26L13 26L13 27L12 27L12 29L15 29L15 30L16 30L16 32L18 32L18 30L19 30L19 29L18 29L18 30L17 30L17 29L16 29L16 28L18 28L18 26L19 26L19 28L20 28L20 29L21 29L21 31L24 31L24 27L23 27L23 29L22 29L22 28L21 28L21 25L22 25L22 26L24 26L24 25L22 25L22 24L23 24L23 23L24 23L24 24L27 24L27 22L25 22L25 21L27 21L27 20L28 20L28 19L26 19L26 18L25 18L25 17L28 17L28 18L29 18L29 17L30 17L30 19L29 19L29 20L30 20L30 21L28 21L28 24L30 24L30 23L29 23L29 22L30 22L30 21L31 21L31 20L30 20L30 19L31 19L31 16L30 16L30 15L29 15L29 13L28 13L28 16L26 16L26 14L25 14L25 13L27 13L27 12L28 12L28 11L27 11L27 10L25 10L25 11L24 11L24 10L23 10L23 13L24 13L24 14L21 14L21 13L22 13L22 12L21 12L21 13L20 13L20 14L19 14L19 13L18 13L18 14L17 14L17 13L16 13L16 14L17 14L17 15L16 15L16 17L17 17L17 16L18 16L18 14L19 14L19 16L21 16L21 17L20 17L20 18L19 18L19 17L18 17L18 18L15 18L15 17L14 17L14 16L15 16L15 15L14 15L14 16L13 16L13 17L12 17L12 15L13 15L13 14L12 14L12 13L11 13L11 12L10 12L10 13L11 13L11 18L10 18L10 19L9 19L9 17L10 17L10 16L9 16L9 15L10 15L10 14L8 14L8 15L6 15L6 14L7 14L7 13L8 13L8 12L9 12L9 11L8 11L8 10L9 10L9 9L8 9L8 10L7 10L7 9L6 9L6 10L5 10L5 9ZM18 9L18 10L19 10L19 9ZM6 10L6 11L7 11L7 10ZM14 11L14 12L15 12L15 11ZM25 11L25 12L26 12L26 11ZM30 11L30 12L31 12L31 11ZM6 12L6 13L5 13L5 14L4 14L4 15L3 15L3 16L4 16L4 17L8 17L8 16L6 16L6 15L5 15L5 14L6 14L6 13L7 13L7 12ZM21 15L21 16L22 16L22 17L21 17L21 20L19 20L19 18L18 18L18 20L17 20L17 19L16 19L16 20L17 20L17 22L18 22L18 24L16 24L16 21L12 21L12 19L13 19L13 18L11 18L11 19L10 19L10 21L9 21L9 20L8 20L8 19L7 19L7 20L6 20L6 21L9 21L9 22L10 22L10 21L12 21L12 22L13 22L13 23L12 23L12 25L13 25L13 24L14 24L14 25L15 25L15 24L16 24L16 25L17 25L17 26L18 26L18 25L19 25L19 26L20 26L20 24L22 24L22 23L23 23L23 22L24 22L24 21L23 21L23 18L24 18L24 20L25 20L25 18L24 18L24 17L25 17L25 16L24 16L24 17L23 17L23 15ZM28 16L28 17L29 17L29 16ZM22 17L22 18L23 18L23 17ZM1 18L1 19L2 19L2 18ZM14 19L14 20L15 20L15 19ZM2 20L2 22L3 22L3 21L4 21L4 20ZM21 20L21 21L20 21L20 22L19 22L19 21L18 21L18 22L19 22L19 23L20 23L20 22L21 22L21 21L22 21L22 22L23 22L23 21L22 21L22 20ZM6 22L6 23L7 23L7 22ZM14 23L14 24L15 24L15 23ZM2 24L2 25L3 25L3 24ZM25 25L25 28L28 28L28 25ZM29 25L29 28L30 28L30 29L31 29L31 28L32 28L32 27L31 27L31 26L30 26L30 25ZM15 26L15 27L14 27L14 28L16 28L16 26ZM26 26L26 27L27 27L27 26ZM30 27L30 28L31 28L31 27ZM9 28L9 29L10 29L10 28ZM25 29L25 30L28 30L28 31L29 31L29 30L28 30L28 29ZM14 31L14 32L15 32L15 31ZM0 0L0 7L7 7L7 0ZM1 1L1 6L6 6L6 1ZM2 2L2 5L5 5L5 2ZM26 0L26 7L33 7L33 0ZM27 1L27 6L32 6L32 1ZM28 2L28 5L31 5L31 2ZM0 26L0 33L7 33L7 26ZM1 27L1 32L6 32L6 27ZM2 28L2 31L5 31L5 28Z" fill="#000000"/></g></g></svg>
